<svg width="350" height="306" viewBox="0 0 350 306" fill="none" xmlns="http://www.w3.org/2000/svg">
<path d="M49.6631 10.3846C49.4662 11.3689 49.1709 15.0602 48.7772 21.4583C48.4819 27.7579 48.0882 35.977 47.596 46.1156C47.1038 57.14 46.4148 66.9832 45.5289 75.6453C44.643 84.2089 43.9048 91.9851 43.3142 98.9738C47.1531 96.3161 51.4349 92.7725 56.1596 88.3431C60.8844 83.8152 65.7076 78.9428 70.6292 73.7259C75.6492 68.4105 80.5708 62.9967 85.394 57.4845C90.3157 51.9723 94.7943 46.8046 98.8301 41.9814C102.866 37.1582 106.36 32.9256 109.313 29.2836C112.266 25.6416 114.284 23.0824 115.367 21.6059C117.532 18.8498 119.845 16.2906 122.306 13.9282C124.865 11.4674 127.277 9.30186 129.541 7.43165C131.805 5.463 133.872 3.88808 135.742 2.70689C137.711 1.42727 139.187 0.590594 140.172 0.196865C140.861 0 141.451 -0.0492162 141.943 0.0492162C142.436 0.147649 142.829 0.39373 143.125 0.787459C143.518 1.08276 143.715 1.67335 143.715 2.55924C144.404 3.0514 144.601 3.44513 144.306 3.74043C144.011 4.03573 144.011 4.33103 144.306 4.62632C144.601 5.02005 144.896 5.41378 145.192 5.80751C145.487 6.20124 145.389 6.84105 144.896 7.72694C144.109 9.49873 143.272 11.0736 142.386 12.4517C141.5 13.8298 140.27 15.5031 138.695 17.4717C137.12 19.4404 134.955 21.9504 132.199 25.0018C129.541 28.0532 125.948 32.089 121.42 37.109C116.991 41.8338 111.872 47.5921 106.065 54.3839C100.257 61.1757 94.0069 68.2136 87.3135 75.4976C80.7185 82.7816 73.779 89.9672 66.495 97.0543C59.211 104.141 51.8778 110.343 44.4954 115.658C47.3499 116.249 50.549 117.135 54.0925 118.316C57.7345 119.497 61.6226 121.121 65.7568 123.188C69.9894 125.255 74.468 127.814 79.1928 130.866C84.016 133.917 89.0852 137.608 94.4006 141.94C100.503 147.058 106.459 152.176 112.266 157.295C118.074 162.413 123.93 167.04 129.836 171.174C135.742 175.21 141.796 178.507 147.997 181.066C154.198 183.626 160.744 184.905 167.634 184.905C172.162 184.905 176.887 184.265 181.809 182.986C186.829 181.706 192.095 179.541 197.607 176.489C198.887 175.8 199.822 175.407 200.412 175.308C201.101 175.21 201.495 175.259 201.593 175.456C201.79 175.653 201.79 175.997 201.593 176.489C201.397 176.883 201.151 177.277 200.855 177.67C200.658 177.867 200.314 178.163 199.822 178.556C199.33 178.852 198.739 179.245 198.05 179.738C197.459 180.131 196.869 180.623 196.278 181.214C195.688 181.706 195.195 182.248 194.802 182.838C194.506 183.035 194.506 183.183 194.802 183.281C195.097 183.281 195.343 183.38 195.54 183.576C195.835 183.675 195.934 183.921 195.835 184.315C195.737 184.61 195.097 185.102 193.916 185.791C193.325 186.185 192.833 186.726 192.439 187.415C192.046 188.006 191.652 188.646 191.258 189.335C190.963 189.925 190.569 190.565 190.077 191.254C189.585 191.845 188.945 192.337 188.157 192.731C186.386 193.715 185.008 194.995 184.023 196.569C183.137 198.046 182.399 199.08 181.809 199.67C181.021 200.556 179.299 201.786 176.641 203.361C173.983 204.936 170.784 206.462 167.044 207.938C163.402 209.316 159.366 210.399 154.937 211.187C150.507 212.073 146.078 212.171 141.648 211.482C134.955 210.399 128.606 207.84 122.601 203.804C116.696 199.769 110.937 195.044 105.327 189.63C99.8144 184.118 94.4498 178.212 89.2329 171.912C84.016 165.612 78.8483 159.657 73.7298 154.047C68.6113 148.436 63.4436 143.514 58.2267 139.282C53.1082 134.951 47.8421 131.998 42.4283 130.423C42.4283 134.36 42.4775 138.839 42.5759 143.859C42.7728 148.879 42.9205 154.096 43.0189 159.51C43.2158 164.825 43.3634 170.091 43.4618 175.308C43.6587 180.427 43.8064 185.102 43.9048 189.335C44.1016 193.567 44.2493 197.111 44.3477 199.965C44.5446 202.82 44.6922 204.543 44.7907 205.133C45.1844 207.594 45.1844 209.12 44.7907 209.71C44.3969 210.202 43.6095 210.596 42.4283 210.891C41.9361 211.088 41.3948 211.039 40.8042 210.744C40.312 210.547 39.7706 210.695 39.18 211.187C38.8847 211.482 38.6879 211.827 38.5894 212.22C38.491 212.614 38.3434 213.008 38.1465 213.401C37.9496 213.894 37.6051 214.337 37.1129 214.73C36.7192 215.124 35.981 215.469 34.8982 215.764C34.4061 215.961 33.8647 216.059 33.2741 216.059C32.7819 216.059 32.1913 216.059 31.5023 216.059C30.7148 216.256 29.6813 215.961 28.4017 215.173C27.2205 214.484 26.1377 213.746 25.1534 212.958C24.6613 212.466 24.1691 211.777 23.6769 210.891C23.1848 210.104 22.6926 209.316 22.2004 208.529C21.7083 207.938 21.1177 207.495 20.4287 207.2C19.8381 206.905 19.3951 206.117 19.0998 204.838C18.0171 200.31 17.2788 194.699 16.8851 188.006C16.5898 181.312 16.4421 174.422 16.4421 167.335C16.4421 163.201 16.4914 159.116 16.5898 155.08C16.6882 150.946 16.7867 147.058 16.8851 143.416C17.082 139.676 17.2296 136.23 17.328 133.081C17.5249 129.931 17.7218 127.273 17.9186 125.108L11.5697 124.369C9.79796 124.369 8.51834 124.271 7.73088 124.074C6.94342 123.877 6.30361 123.631 5.81145 123.336C5.41772 122.942 5.02399 122.499 4.63026 122.007C4.23653 121.515 3.64594 121.023 2.85848 120.53C1.28356 119.448 0.348451 118.414 0.0531535 117.43C-0.242144 116.347 0.692964 114.969 2.85848 113.296C4.33496 112.016 6.35283 111.13 8.91207 110.638C11.4713 110.047 14.8672 109.211 19.0998 108.128C19.2967 103.403 19.4936 98.0879 19.6904 92.1819C19.9857 86.276 20.3302 80.1732 20.724 73.8735C21.1177 67.4754 21.5114 61.0773 21.9051 54.6792C22.3973 48.1827 22.8895 42.0306 23.3816 36.2231C23.8738 30.4156 24.4152 25.1003 25.0058 20.2771C25.5964 15.4539 26.187 11.4674 26.7775 8.31754C26.9744 6.93948 27.2205 5.95516 27.5158 5.36457C27.9095 4.77397 28.3525 4.33103 28.8446 4.03573C29.4352 3.9373 29.9766 4.13416 30.4688 4.62632C30.9609 5.11848 31.6007 5.11848 32.3882 4.62632C32.9788 4.33103 33.471 4.08494 33.8647 3.88808C34.2584 3.59278 34.5537 3.44513 34.7506 3.44513C35.0459 3.3467 35.292 3.44513 35.4888 3.74043C35.6857 4.03573 35.981 4.57711 36.3747 5.36457C36.4731 5.463 36.5716 5.463 36.67 5.36457C36.8669 5.26613 37.0637 5.11848 37.2606 4.92162L37.8512 4.33103C38.5402 4.03573 39.4261 3.83886 40.5089 3.74043C41.5916 3.54357 42.2314 3.83886 42.4283 4.62632C42.5267 5.31535 42.6744 5.61065 42.8712 5.51221C43.0681 5.31535 43.3142 5.02005 43.6095 4.62632C44.0032 4.23259 44.4462 3.83886 44.9383 3.44513C45.4305 3.0514 46.0211 2.95297 46.7101 3.14984C48.0882 3.642 49.1217 4.47867 49.8107 5.65986C50.4998 6.74262 50.4505 8.31754 49.6631 10.3846Z" fill="#FF820D"/>
<path d="M349.065 279.902C349.557 280.591 349.852 281.084 349.951 281.379C350.049 281.674 350 281.92 349.803 282.117C349.705 282.216 349.508 282.314 349.213 282.412C348.917 282.511 348.671 282.658 348.474 282.855C347.982 283.151 347.834 283.446 348.031 283.741C348.327 284.037 348.179 284.578 347.588 285.365C347.195 285.661 347.145 286.005 347.441 286.399C347.736 286.694 347.785 286.94 347.588 287.137C346.112 289.401 344.98 290.828 344.192 291.419C343.405 291.419 342.716 291.517 342.125 291.714C341.83 291.813 341.633 291.911 341.535 292.01C341.24 292.305 340.944 292.699 340.649 293.191C340.354 293.584 340.108 293.978 339.911 294.372C339.714 294.667 339.468 294.913 339.172 295.11C338.976 295.209 338.729 295.061 338.434 294.667C338.139 294.175 337.745 293.929 337.253 293.929C336.859 293.929 336.564 294.077 336.367 294.372C336.17 294.569 335.924 294.815 335.629 295.11C335.334 295.307 335.137 295.553 335.038 295.848C335.038 296.045 335.186 296.291 335.481 296.587C335.777 296.784 336.466 297.03 337.548 297.325C340.009 298.014 340.452 298.703 338.877 299.392C337.401 299.983 334.546 300.13 330.314 299.835C326.278 299.54 322.439 299.294 318.797 299.097C315.155 298.801 311.513 298.605 307.871 298.506C304.327 298.309 300.685 298.162 296.945 298.063C293.205 297.965 289.218 297.965 284.985 298.063C279.375 298.162 273.42 298.408 267.12 298.801C260.919 299.195 254.717 299.638 248.516 300.13C242.413 300.622 236.507 301.115 230.798 301.607C225.188 302.197 220.118 302.739 215.591 303.231C211.063 303.723 207.224 304.166 204.074 304.56C201.023 305.052 199.054 305.396 198.168 305.593C197.282 305.888 196.642 305.987 196.249 305.888C195.953 305.888 195.707 305.642 195.51 305.15C195.412 304.658 195.313 303.92 195.215 302.936C195.117 301.951 194.871 300.622 194.477 298.949C194.182 297.965 193.739 296.98 193.148 295.996C192.656 294.913 192.311 294.077 192.114 293.486C191.819 291.911 191.721 290.828 191.819 290.238C191.918 289.549 192.508 289.106 193.591 288.909L211.752 284.037C210.669 277.245 209.881 269.321 209.389 260.265C208.996 251.111 208.799 241.218 208.799 230.588C208.799 221.434 208.996 212.082 209.389 202.534C209.783 192.888 210.374 183.193 211.161 173.448C213.13 148.84 214.754 129.99 216.034 116.898C217.412 103.708 218.691 96.0306 219.872 93.8651C220.168 93.373 220.414 92.93 220.611 92.5363C220.807 92.0441 221.103 91.798 221.497 91.798C222.087 91.5028 222.53 91.552 222.825 91.9457C223.121 92.3394 223.662 92.3886 224.449 92.0933C224.646 92.0933 224.794 91.9949 224.892 91.798C225.089 91.5028 225.335 91.2075 225.631 90.9122L225.926 90.7645C226.123 90.5676 226.517 90.3216 227.107 90.0263C228.584 90.5184 229.666 90.9614 230.355 91.3551C230.749 91.552 230.995 91.6996 231.094 91.798C231.684 92.0933 232.275 92.6347 232.865 93.4222C233.456 94.1112 233.997 94.1604 234.49 93.5698L234.785 93.2745C234.982 93.0777 235.277 92.9792 235.671 92.9792C235.966 93.1761 236.261 93.373 236.557 93.5698C236.852 93.7667 237.098 93.9636 237.295 94.1604C237.59 94.4557 237.836 94.6526 238.033 94.751C238.525 95.0463 238.968 95.44 239.362 95.9322C239.756 96.4244 240.149 97.3595 240.543 98.7375C240.937 100.509 240.986 104.151 240.691 109.664C240.494 115.176 240.1 121.968 239.51 130.039C239.017 138.11 238.476 147.166 237.886 157.206C237.295 167.246 236.95 177.68 236.852 188.508C236.754 193.528 236.606 198.942 236.409 204.749C236.212 210.458 236.015 216.364 235.818 222.467C235.622 228.471 235.425 234.427 235.228 240.333C235.129 246.238 235.08 251.849 235.08 257.164C235.08 261.397 235.08 265.384 235.08 269.124C235.179 272.766 235.474 275.916 235.966 278.574C246.695 276.31 258.704 274.292 271.992 272.52C285.379 270.748 299.652 269.862 314.81 269.862C320.323 269.862 324.9 270.158 328.542 270.748C332.282 271.24 335.383 271.979 337.844 272.963C338.434 273.16 339.271 273.553 340.354 274.144C341.436 274.636 342.568 275.227 343.75 275.916C344.931 276.605 346.013 277.294 346.998 277.983C347.982 278.672 348.671 279.312 349.065 279.902Z" fill="#FF820D"/>
</svg>
