<svg width="250" height="139" viewBox="0 0 250 139" fill="none" xmlns="http://www.w3.org/2000/svg">
<path d="M87.3652 3.58594C87.3067 3.87891 87.2188 4.97754 87.1016 6.88184C87.0137 8.75684 86.8965 11.2031 86.75 14.2207C86.6035 17.502 86.3984 20.4316 86.1348 23.0098C85.8711 25.5586 85.6514 27.873 85.4756 29.9531C86.6182 29.1621 87.8926 28.1074 89.2988 26.7891C90.7051 25.4414 92.1406 23.9912 93.6055 22.4385C95.0996 20.8564 96.5645 19.2451 98 17.6045C99.4649 15.9639 100.798 14.4258 101.999 12.9902C103.2 11.5547 104.24 10.2949 105.119 9.21094C105.998 8.12695 106.599 7.36523 106.921 6.92578C107.565 6.10547 108.254 5.34375 108.986 4.64062C109.748 3.9082 110.466 3.26367 111.14 2.70703C111.813 2.12109 112.429 1.65234 112.985 1.30078C113.571 0.919922 114.011 0.670898 114.304 0.553711C114.509 0.495117 114.685 0.480469 114.831 0.509766C114.978 0.539062 115.095 0.612305 115.183 0.729492C115.3 0.817383 115.358 0.993164 115.358 1.25684C115.563 1.40332 115.622 1.52051 115.534 1.6084C115.446 1.69629 115.446 1.78418 115.534 1.87207C115.622 1.98926 115.71 2.10645 115.798 2.22363C115.886 2.34082 115.856 2.53125 115.71 2.79492C115.476 3.32227 115.227 3.79102 114.963 4.20117C114.699 4.61133 114.333 5.10938 113.864 5.69531C113.396 6.28125 112.751 7.02832 111.931 7.93652C111.14 8.84473 110.07 10.0459 108.723 11.54C107.404 12.9463 105.881 14.6602 104.152 16.6816C102.424 18.7031 100.563 20.7979 98.5713 22.9658C96.6084 25.1338 94.543 27.2725 92.375 29.3818C90.207 31.4912 88.0244 33.3369 85.8272 34.9189C86.6768 35.0947 87.6289 35.3584 88.6836 35.71C89.7676 36.0615 90.9248 36.5449 92.1553 37.1602C93.4151 37.7754 94.7481 38.5371 96.1543 39.4453C97.5899 40.3535 99.0986 41.4521 100.681 42.7412C102.497 44.2646 104.27 45.7881 105.998 47.3115C107.727 48.835 109.47 50.2119 111.228 51.4424C112.985 52.6436 114.787 53.625 116.633 54.3867C118.479 55.1484 120.427 55.5293 122.478 55.5293C123.825 55.5293 125.231 55.3389 126.696 54.958C128.19 54.5771 129.758 53.9326 131.398 53.0244C131.779 52.8193 132.058 52.7021 132.233 52.6729C132.438 52.6436 132.556 52.6582 132.585 52.7168C132.644 52.7754 132.644 52.8779 132.585 53.0244C132.526 53.1416 132.453 53.2588 132.365 53.376C132.307 53.4346 132.204 53.5225 132.058 53.6396C131.911 53.7275 131.735 53.8447 131.53 53.9912C131.355 54.1084 131.179 54.2549 131.003 54.4307C130.827 54.5771 130.681 54.7383 130.563 54.9141C130.476 54.9727 130.476 55.0166 130.563 55.0459C130.651 55.0459 130.725 55.0752 130.783 55.1338C130.871 55.1631 130.9 55.2363 130.871 55.3535C130.842 55.4414 130.651 55.5879 130.3 55.793C130.124 55.9102 129.978 56.0713 129.86 56.2764C129.743 56.4521 129.626 56.6426 129.509 56.8477C129.421 57.0234 129.304 57.2139 129.157 57.4189C129.011 57.5947 128.82 57.7412 128.586 57.8584C128.059 58.1514 127.648 58.5322 127.355 59.001C127.092 59.4404 126.872 59.748 126.696 59.9238C126.462 60.1875 125.949 60.5537 125.158 61.0225C124.367 61.4912 123.415 61.9453 122.302 62.3848C121.218 62.7949 120.017 63.1172 118.698 63.3516C117.38 63.6152 116.062 63.6445 114.743 63.4395C112.751 63.1172 110.861 62.3555 109.074 61.1543C107.316 59.9531 105.603 58.5469 103.933 56.9355C102.292 55.2949 100.695 53.5371 99.1426 51.6621C97.5899 49.7871 96.0518 48.0146 94.5283 46.3447C93.0049 44.6748 91.4668 43.21 89.9141 41.9502C88.3906 40.6611 86.8233 39.7822 85.2119 39.3135C85.2119 40.4854 85.2266 41.8184 85.2559 43.3125C85.3145 44.8066 85.3584 46.3594 85.3877 47.9707C85.4463 49.5527 85.4902 51.1201 85.5195 52.6729C85.5781 54.1963 85.6221 55.5879 85.6514 56.8477C85.71 58.1074 85.7539 59.1621 85.7832 60.0117C85.8418 60.8613 85.8858 61.374 85.9151 61.5498C86.0322 62.2822 86.0322 62.7363 85.9151 62.9121C85.7979 63.0586 85.5635 63.1758 85.2119 63.2637C85.0654 63.3223 84.9043 63.3076 84.7285 63.2197C84.582 63.1611 84.4209 63.2051 84.2451 63.3516C84.1572 63.4395 84.0986 63.542 84.0693 63.6592C84.0401 63.7764 83.9961 63.8936 83.9375 64.0107C83.8789 64.1572 83.7764 64.2891 83.6299 64.4062C83.5127 64.5234 83.293 64.626 82.9707 64.7139C82.8242 64.7725 82.6631 64.8018 82.4873 64.8018C82.3408 64.8018 82.1651 64.8018 81.96 64.8018C81.7256 64.8604 81.418 64.7725 81.0371 64.5381C80.6856 64.333 80.3633 64.1133 80.0703 63.8789C79.9238 63.7324 79.7774 63.5273 79.6309 63.2637C79.4844 63.0293 79.3379 62.7949 79.1914 62.5605C79.0449 62.3848 78.8692 62.2529 78.6641 62.165C78.4883 62.0771 78.3565 61.8428 78.2686 61.4619C77.9463 60.1143 77.7266 58.4443 77.6094 56.4521C77.5215 54.46 77.4776 52.4092 77.4776 50.2998C77.4776 49.0693 77.4922 47.8535 77.5215 46.6523C77.5508 45.4219 77.5801 44.2646 77.6094 43.1807C77.668 42.0674 77.7119 41.042 77.7412 40.1045C77.7998 39.167 77.8584 38.376 77.917 37.7314L76.0274 37.5117C75.5 37.5117 75.1192 37.4824 74.8848 37.4238C74.6504 37.3652 74.46 37.292 74.3135 37.2041C74.1963 37.0869 74.0791 36.9551 73.9619 36.8086C73.8447 36.6621 73.669 36.5156 73.4346 36.3691C72.9658 36.0469 72.6875 35.7393 72.5996 35.4463C72.5117 35.124 72.7901 34.7139 73.4346 34.2158C73.874 33.835 74.4746 33.5713 75.2363 33.4248C75.9981 33.249 77.0088 33 78.2686 32.6777C78.3272 31.2715 78.3858 29.6895 78.4443 27.9316C78.5322 26.1738 78.6348 24.3574 78.752 22.4824C78.8692 20.5781 78.9863 18.6738 79.1035 16.7695C79.25 14.8359 79.3965 13.0049 79.543 11.2764C79.6895 9.54785 79.8506 7.96582 80.0264 6.53027C80.2022 5.09473 80.3779 3.9082 80.5537 2.9707C80.6123 2.56055 80.6856 2.26758 80.7734 2.0918C80.8906 1.91602 81.0225 1.78418 81.169 1.69629C81.3447 1.66699 81.5059 1.72559 81.6524 1.87207C81.7988 2.01855 81.9893 2.01855 82.2236 1.87207C82.3994 1.78418 82.5459 1.71094 82.6631 1.65234C82.7803 1.56445 82.8682 1.52051 82.9268 1.52051C83.0147 1.49121 83.0879 1.52051 83.1465 1.6084C83.2051 1.69629 83.293 1.85742 83.4102 2.0918C83.4395 2.12109 83.4688 2.12109 83.4981 2.0918C83.5567 2.0625 83.6152 2.01855 83.6738 1.95996L83.8496 1.78418C84.0547 1.69629 84.3184 1.6377 84.6406 1.6084C84.9629 1.5498 85.1533 1.6377 85.2119 1.87207C85.2412 2.07715 85.2852 2.16504 85.3438 2.13574C85.4024 2.07715 85.4756 1.98926 85.5635 1.87207C85.6807 1.75488 85.8125 1.6377 85.959 1.52051C86.1055 1.40332 86.2813 1.37402 86.4863 1.43262C86.8965 1.5791 87.2041 1.82812 87.4092 2.17969C87.6143 2.50195 87.5996 2.9707 87.3652 3.58594Z" fill="white"/>
<path d="M176.478 83.8037C176.624 84.0088 176.712 84.1553 176.741 84.2432C176.771 84.3311 176.756 84.4043 176.697 84.4629C176.668 84.4922 176.609 84.5215 176.521 84.5508C176.434 84.5801 176.36 84.624 176.302 84.6826C176.155 84.7705 176.111 84.8584 176.17 84.9463C176.258 85.0342 176.214 85.1953 176.038 85.4297C175.921 85.5176 175.906 85.6201 175.994 85.7373C176.082 85.8252 176.097 85.8984 176.038 85.957C175.599 86.6309 175.262 87.0557 175.027 87.2314C174.793 87.2314 174.588 87.2607 174.412 87.3193C174.324 87.3486 174.266 87.3779 174.236 87.4072C174.148 87.4951 174.061 87.6123 173.973 87.7588C173.885 87.876 173.812 87.9932 173.753 88.1104C173.694 88.1982 173.621 88.2715 173.533 88.3301C173.475 88.3594 173.401 88.3154 173.313 88.1982C173.226 88.0518 173.108 87.9785 172.962 87.9785C172.845 87.9785 172.757 88.0225 172.698 88.1104C172.64 88.1689 172.566 88.2422 172.479 88.3301C172.391 88.3887 172.332 88.4619 172.303 88.5498C172.303 88.6084 172.347 88.6816 172.435 88.7695C172.522 88.8281 172.728 88.9014 173.05 88.9893C173.782 89.1943 173.914 89.3994 173.445 89.6045C173.006 89.7803 172.156 89.8242 170.896 89.7363C169.695 89.6484 168.553 89.5752 167.469 89.5166C166.385 89.4287 165.301 89.3701 164.217 89.3408C163.162 89.2822 162.078 89.2383 160.965 89.209C159.852 89.1797 158.665 89.1797 157.405 89.209C155.735 89.2383 153.963 89.3115 152.088 89.4287C150.242 89.5459 148.396 89.6777 146.551 89.8242C144.734 89.9707 142.977 90.1172 141.277 90.2637C139.607 90.4395 138.099 90.6006 136.751 90.7471C135.403 90.8936 134.261 91.0254 133.323 91.1426C132.415 91.2891 131.829 91.3916 131.565 91.4502C131.302 91.5381 131.111 91.5674 130.994 91.5381C130.906 91.5381 130.833 91.4648 130.774 91.3184C130.745 91.1719 130.716 90.9521 130.687 90.6592C130.657 90.3662 130.584 89.9707 130.467 89.4727C130.379 89.1797 130.247 88.8867 130.071 88.5938C129.925 88.2715 129.822 88.0225 129.764 87.8467C129.676 87.3779 129.646 87.0557 129.676 86.8799C129.705 86.6748 129.881 86.543 130.203 86.4844L135.608 85.0342C135.286 83.0127 135.052 80.6543 134.905 77.959C134.788 75.2344 134.73 72.29 134.73 69.126C134.73 66.4014 134.788 63.6182 134.905 60.7764C135.022 57.9053 135.198 55.0195 135.433 52.1191C136.019 44.7949 136.502 39.1846 136.883 35.2881C137.293 31.3623 137.674 29.0771 138.025 28.4326C138.113 28.2861 138.187 28.1543 138.245 28.0371C138.304 27.8906 138.392 27.8174 138.509 27.8174C138.685 27.7295 138.816 27.7441 138.904 27.8613C138.992 27.9785 139.153 27.9932 139.388 27.9053C139.446 27.9053 139.49 27.876 139.52 27.8174C139.578 27.7295 139.651 27.6416 139.739 27.5537L139.827 27.5098C139.886 27.4512 140.003 27.3779 140.179 27.29C140.618 27.4365 140.94 27.5684 141.146 27.6855C141.263 27.7441 141.336 27.7881 141.365 27.8174C141.541 27.9053 141.717 28.0664 141.893 28.3008C142.068 28.5059 142.23 28.5205 142.376 28.3447L142.464 28.2568C142.522 28.1982 142.61 28.1689 142.728 28.1689C142.815 28.2275 142.903 28.2861 142.991 28.3447C143.079 28.4033 143.152 28.4619 143.211 28.5205C143.299 28.6084 143.372 28.667 143.431 28.6963C143.577 28.7842 143.709 28.9014 143.826 29.0479C143.943 29.1943 144.061 29.4727 144.178 29.8828C144.295 30.4102 144.31 31.4941 144.222 33.1348C144.163 34.7754 144.046 36.7969 143.87 39.1992C143.724 41.6016 143.563 44.2969 143.387 47.2852C143.211 50.2734 143.108 53.3789 143.079 56.6016C143.05 58.0957 143.006 59.707 142.947 61.4355C142.889 63.1348 142.83 64.8926 142.771 66.709C142.713 68.4961 142.654 70.2686 142.596 72.0264C142.566 73.7842 142.552 75.4541 142.552 77.0361C142.552 78.2959 142.552 79.4824 142.552 80.5957C142.581 81.6797 142.669 82.6172 142.815 83.4082C146.009 82.7344 149.583 82.1338 153.538 81.6064C157.522 81.0791 161.771 80.8154 166.282 80.8154C167.923 80.8154 169.285 80.9033 170.369 81.0791C171.482 81.2256 172.405 81.4453 173.138 81.7383C173.313 81.7969 173.563 81.9141 173.885 82.0898C174.207 82.2363 174.544 82.4121 174.896 82.6172C175.247 82.8223 175.569 83.0273 175.862 83.2324C176.155 83.4375 176.36 83.6279 176.478 83.8037Z" fill="white"/>
<path d="M80.5529 110.16V112.38H84.4409V113.94H80.5529V117H78.6089V108.6H84.9569V110.16H80.5529ZM94.025 117L92.405 114.66H92.309H90.617V117H88.673V108.6H92.309C93.053 108.6 93.697 108.724 94.241 108.972C94.793 109.22 95.217 109.572 95.513 110.028C95.809 110.484 95.957 111.024 95.957 111.648C95.957 112.272 95.805 112.812 95.501 113.268C95.205 113.716 94.781 114.06 94.229 114.3L96.113 117H94.025ZM93.989 111.648C93.989 111.176 93.837 110.816 93.533 110.568C93.229 110.312 92.785 110.184 92.201 110.184H90.617V113.112H92.201C92.785 113.112 93.229 112.984 93.533 112.728C93.837 112.472 93.989 112.112 93.989 111.648ZM103.965 117.144C103.093 117.144 102.305 116.956 101.601 116.58C100.905 116.204 100.357 115.688 99.9572 115.032C99.5652 114.368 99.3692 113.624 99.3692 112.8C99.3692 111.976 99.5652 111.236 99.9572 110.58C100.357 109.916 100.905 109.396 101.601 109.02C102.305 108.644 103.093 108.456 103.965 108.456C104.837 108.456 105.621 108.644 106.317 109.02C107.013 109.396 107.561 109.916 107.961 110.58C108.361 111.236 108.561 111.976 108.561 112.8C108.561 113.624 108.361 114.368 107.961 115.032C107.561 115.688 107.013 116.204 106.317 116.58C105.621 116.956 104.837 117.144 103.965 117.144ZM103.965 115.488C104.461 115.488 104.909 115.376 105.309 115.152C105.709 114.92 106.021 114.6 106.245 114.192C106.477 113.784 106.593 113.32 106.593 112.8C106.593 112.28 106.477 111.816 106.245 111.408C106.021 111 105.709 110.684 105.309 110.46C104.909 110.228 104.461 110.112 103.965 110.112C103.469 110.112 103.021 110.228 102.621 110.46C102.221 110.684 101.905 111 101.673 111.408C101.449 111.816 101.337 112.28 101.337 112.8C101.337 113.32 101.449 113.784 101.673 114.192C101.905 114.6 102.221 114.92 102.621 115.152C103.021 115.376 103.469 115.488 103.965 115.488ZM120.126 108.6V117H118.53L114.342 111.9V117H112.422V108.6H114.03L118.206 113.7V108.6H120.126ZM126.254 110.184H123.566V108.6H130.886V110.184H128.198V117H126.254V110.184ZM133.526 112.872H136.922V114.372H133.526V112.872ZM147.431 115.44V117H140.927V108.6H147.275V110.16H142.859V111.984H146.759V113.496H142.859V115.44H147.431ZM159.082 108.6V117H157.486L153.298 111.9V117H151.378V108.6H152.986L157.162 113.7V108.6H159.082ZM163.469 108.6H167.285C168.197 108.6 169.001 108.776 169.697 109.128C170.401 109.472 170.945 109.96 171.329 110.592C171.721 111.224 171.917 111.96 171.917 112.8C171.917 113.64 171.721 114.376 171.329 115.008C170.945 115.64 170.401 116.132 169.697 116.484C169.001 116.828 168.197 117 167.285 117H163.469V108.6ZM167.189 115.404C168.029 115.404 168.697 115.172 169.193 114.708C169.697 114.236 169.949 113.6 169.949 112.8C169.949 112 169.697 111.368 169.193 110.904C168.697 110.432 168.029 110.196 167.189 110.196H165.413V115.404H167.189ZM55.476 123.6L52.728 132H50.64L48.792 126.312L46.884 132H44.808L42.048 123.6H44.064L45.96 129.504L47.94 123.6H49.74L51.66 129.552L53.616 123.6H55.476ZM65.4652 130.44V132H58.9612V123.6H65.3092V125.16H60.8932V126.984H64.7932V128.496H60.8932V130.44H65.4652ZM75.58 127.632C76.06 127.784 76.436 128.04 76.708 128.4C76.98 128.752 77.116 129.188 77.116 129.708C77.116 130.444 76.828 131.012 76.252 131.412C75.684 131.804 74.852 132 73.756 132H69.412V123.6H73.516C74.54 123.6 75.324 123.796 75.868 124.188C76.42 124.58 76.696 125.112 76.696 125.784C76.696 126.192 76.596 126.556 76.396 126.876C76.204 127.196 75.932 127.448 75.58 127.632ZM71.344 125.064V127.044H73.276C73.756 127.044 74.12 126.96 74.368 126.792C74.616 126.624 74.74 126.376 74.74 126.048C74.74 125.72 74.616 125.476 74.368 125.316C74.12 125.148 73.756 125.064 73.276 125.064H71.344ZM73.612 130.536C74.124 130.536 74.508 130.452 74.764 130.284C75.028 130.116 75.16 129.856 75.16 129.504C75.16 128.808 74.644 128.46 73.612 128.46H71.344V130.536H73.612ZM80.6158 127.872H84.0118V129.372H80.6158V127.872ZM88.0167 123.6H91.8327C92.7447 123.6 93.5487 123.776 94.2447 124.128C94.9487 124.472 95.4927 124.96 95.8767 125.592C96.2687 126.224 96.4647 126.96 96.4647 127.8C96.4647 128.64 96.2687 129.376 95.8767 130.008C95.4927 130.64 94.9487 131.132 94.2447 131.484C93.5487 131.828 92.7447 132 91.8327 132H88.0167V123.6ZM91.7367 130.404C92.5767 130.404 93.2447 130.172 93.7407 129.708C94.2447 129.236 94.4967 128.6 94.4967 127.8C94.4967 127 94.2447 126.368 93.7407 125.904C93.2447 125.432 92.5767 125.196 91.7367 125.196H89.9607V130.404H91.7367ZM106.835 130.44V132H100.331V123.6H106.679V125.16H102.263V126.984H106.163V128.496H102.263V130.44H106.835ZM118.74 123.6L115.104 132H113.184L109.56 123.6H111.66L114.216 129.6L116.808 123.6H118.74ZM128.346 130.44V132H121.842V123.6H128.19V125.16H123.774V126.984H127.674V128.496H123.774V130.44H128.346ZM132.292 123.6H134.236V130.416H138.448V132H132.292V123.6ZM145.862 132.144C144.99 132.144 144.202 131.956 143.498 131.58C142.802 131.204 142.254 130.688 141.854 130.032C141.462 129.368 141.266 128.624 141.266 127.8C141.266 126.976 141.462 126.236 141.854 125.58C142.254 124.916 142.802 124.396 143.498 124.02C144.202 123.644 144.99 123.456 145.862 123.456C146.734 123.456 147.518 123.644 148.214 124.02C148.91 124.396 149.458 124.916 149.858 125.58C150.258 126.236 150.458 126.976 150.458 127.8C150.458 128.624 150.258 129.368 149.858 130.032C149.458 130.688 148.91 131.204 148.214 131.58C147.518 131.956 146.734 132.144 145.862 132.144ZM145.862 130.488C146.358 130.488 146.806 130.376 147.206 130.152C147.606 129.92 147.918 129.6 148.142 129.192C148.374 128.784 148.49 128.32 148.49 127.8C148.49 127.28 148.374 126.816 148.142 126.408C147.918 126 147.606 125.684 147.206 125.46C146.806 125.228 146.358 125.112 145.862 125.112C145.366 125.112 144.918 125.228 144.518 125.46C144.118 125.684 143.802 126 143.57 126.408C143.346 126.816 143.234 127.28 143.234 127.8C143.234 128.32 143.346 128.784 143.57 129.192C143.802 129.6 144.118 129.92 144.518 130.152C144.918 130.376 145.366 130.488 145.862 130.488ZM157.955 123.6C158.699 123.6 159.343 123.724 159.887 123.972C160.439 124.22 160.863 124.572 161.159 125.028C161.455 125.484 161.603 126.024 161.603 126.648C161.603 127.264 161.455 127.804 161.159 128.268C160.863 128.724 160.439 129.076 159.887 129.324C159.343 129.564 158.699 129.684 157.955 129.684H156.263V132H154.319V123.6H157.955ZM157.847 128.1C158.431 128.1 158.875 127.976 159.179 127.728C159.483 127.472 159.635 127.112 159.635 126.648C159.635 126.176 159.483 125.816 159.179 125.568C158.875 125.312 158.431 125.184 157.847 125.184H156.263V128.1H157.847ZM173.035 132L173.023 126.96L170.551 131.112H169.675L167.215 127.068V132H165.391V123.6H166.999L170.143 128.82L173.239 123.6H174.835L174.859 132H173.035ZM185.756 130.44V132H179.252V123.6H185.6V125.16H181.184V126.984H185.084V128.496H181.184V130.44H185.756ZM197.407 123.6V132H195.811L191.623 126.9V132H189.703V123.6H191.311L195.487 128.7V123.6H197.407ZM203.534 125.184H200.846V123.6H208.166V125.184H205.478V132H203.534V125.184Z" fill="white"/>
</svg>
