<svg width="150" height="132" viewBox="0 0 150 132" fill="none" xmlns="http://www.w3.org/2000/svg">
<path d="M21.2842 4.45055C21.1998 4.8724 21.0733 6.45435 20.9045 9.1964C20.778 11.8963 20.6092 15.4187 20.3983 19.7638C20.1874 24.4886 19.8921 28.7071 19.5124 32.4194C19.1327 36.0895 18.8163 39.4222 18.5632 42.4173C20.2085 41.2783 22.0435 39.7597 24.0684 37.8613C26.0933 35.9208 28.1604 33.8326 30.2696 31.5968C32.4211 29.3188 34.5304 26.9986 36.5974 24.6362C38.7067 22.2738 40.6261 20.0591 42.3557 17.992C44.0853 15.925 45.5829 14.111 46.8485 12.5501C48.114 10.9893 48.9788 9.89245 49.4429 9.25968C50.3709 8.07849 51.3623 6.98167 52.4169 5.96922C53.5138 4.91459 54.5473 3.98651 55.5176 3.18499C56.4878 2.34128 57.3737 1.66632 58.1752 1.1601C59.0189 0.611687 59.6517 0.253112 60.0736 0.0843706C60.3689 0 60.622 -0.0210927 60.8329 0.0210927C61.0438 0.063278 61.2126 0.168741 61.3391 0.337482C61.5079 0.464038 61.5922 0.71715 61.5922 1.09682C61.8875 1.30774 61.9719 1.47649 61.8454 1.60304C61.7188 1.7296 61.7188 1.85615 61.8454 1.98271C61.9719 2.15145 62.0985 2.32019 62.225 2.48893C62.3516 2.65767 62.3094 2.93188 62.0985 3.31155C61.761 4.07088 61.4024 4.74585 61.0227 5.33644C60.6431 5.92704 60.1158 6.64419 59.4408 7.48789C58.7658 8.3316 57.8377 9.40732 56.6566 10.7151C55.5176 12.0228 53.9778 13.7524 52.0373 15.9039C50.1389 17.9288 47.9453 20.3966 45.4564 23.3074C42.9674 26.2182 40.2887 29.2344 37.4201 32.3561C34.5936 35.4778 31.6196 38.5574 28.4979 41.5947C25.3762 44.6321 22.2333 47.2897 19.0694 49.5677C20.2928 49.8208 21.6638 50.2005 23.1825 50.7067C24.7434 51.213 26.4097 51.909 28.1815 52.7949C29.9954 53.6808 31.9149 54.7776 33.9398 56.0854C36.0069 57.3931 38.1794 58.9751 40.4574 60.8312C43.0729 63.0249 45.6251 65.2185 48.114 67.4121C50.603 69.6058 53.113 71.5885 55.6441 73.3603C58.1752 75.0898 60.7696 76.5031 63.4273 77.5999C66.085 78.6967 68.8903 79.2451 71.8433 79.2451C73.7838 79.2451 75.8087 78.9709 77.918 78.4225C80.0694 77.8741 82.3263 76.946 84.6887 75.6383C85.2371 75.343 85.6379 75.1742 85.891 75.132C86.1863 75.0898 86.355 75.1109 86.3972 75.1953C86.4816 75.2797 86.4816 75.4273 86.3972 75.6383C86.3128 75.807 86.2074 75.9757 86.0808 76.1445C85.9964 76.2289 85.8488 76.3554 85.6379 76.5241C85.4269 76.6507 85.1738 76.8194 84.8785 77.0304C84.6254 77.1991 84.3723 77.41 84.1192 77.6632C83.8661 77.8741 83.6552 78.1061 83.4864 78.3592C83.3599 78.4436 83.3599 78.5069 83.4864 78.549C83.613 78.549 83.7184 78.5912 83.8028 78.6756C83.9294 78.7178 83.9715 78.8232 83.9294 78.992C83.8872 79.1185 83.613 79.3295 83.1068 79.6248C82.8536 79.7935 82.6427 80.0255 82.474 80.3208C82.3052 80.5739 82.1365 80.8481 81.9677 81.1434C81.8412 81.3966 81.6725 81.6708 81.4615 81.9661C81.2506 82.2192 80.9764 82.4301 80.6389 82.5988C79.8796 83.0207 79.289 83.5691 78.8671 84.2441C78.4875 84.8768 78.1711 85.3198 77.918 85.5729C77.5805 85.9526 76.8422 86.4799 75.7032 87.1548C74.5642 87.8298 73.1932 88.4837 71.5902 89.1165C70.0293 89.7071 68.2997 90.1711 66.4014 90.5086C64.503 90.8882 62.6047 90.9304 60.7064 90.6351C57.8377 90.1711 55.1168 89.0743 52.5435 87.3447C50.0124 85.6151 47.5445 83.5902 45.14 81.27C42.7776 78.9076 40.4785 76.3765 38.2427 73.6766C36.0069 70.9768 33.7921 68.4246 31.5985 66.02C29.4048 63.6154 27.1901 61.5062 24.9543 59.6922C22.7607 57.8361 20.5037 56.5705 18.1836 55.8955C18.1836 57.5829 18.2046 59.5024 18.2468 61.6538C18.3312 63.8053 18.3945 66.0411 18.4367 68.3613C18.521 70.6393 18.5843 72.8962 18.6265 75.132C18.7109 77.3257 18.7742 79.3295 18.8163 81.1434C18.9007 82.9574 18.964 84.4761 19.0062 85.6995C19.0905 86.9228 19.1538 87.6611 19.196 87.9142C19.3647 88.9688 19.3647 89.6227 19.196 89.8758C19.0273 90.0867 18.6898 90.2555 18.1836 90.382C17.9726 90.4664 17.7406 90.4453 17.4875 90.3187C17.2766 90.2344 17.0446 90.2977 16.7914 90.5086C16.6649 90.6351 16.5805 90.7828 16.5383 90.9515C16.4961 91.1203 16.4329 91.289 16.3485 91.4577C16.2641 91.6687 16.1165 91.8585 15.9056 92.0273C15.7368 92.196 15.4204 92.3436 14.9564 92.4702C14.7455 92.5546 14.5134 92.5968 14.2603 92.5968C14.0494 92.5968 13.7963 92.5968 13.501 92.5968C13.1635 92.6811 12.7206 92.5546 12.1722 92.2171C11.6659 91.9218 11.2019 91.6054 10.78 91.2679C10.5691 91.057 10.3582 90.7617 10.1473 90.382C9.93633 90.0445 9.7254 89.7071 9.51448 89.3696C9.30355 89.1165 9.05044 88.9266 8.75514 88.8001C8.50203 88.6735 8.31219 88.336 8.18564 87.7876C7.7216 85.8471 7.40521 83.4425 7.23647 80.5739C7.10991 77.7053 7.04663 74.7524 7.04663 71.715C7.04663 69.9432 7.06773 68.1926 7.10991 66.463C7.1521 64.6912 7.19428 63.0249 7.23647 61.464C7.32084 59.861 7.38412 58.3845 7.4263 57.0345C7.51067 55.6846 7.59504 54.5456 7.67941 53.6175L4.95846 53.3011C4.19913 53.3011 3.65072 53.259 3.31323 53.1746C2.97575 53.0902 2.70155 52.9847 2.49062 52.8582C2.32188 52.6895 2.15314 52.4996 1.9844 52.2887C1.81566 52.0778 1.56254 51.8668 1.22506 51.6559C0.550096 51.1919 0.149336 50.7489 0.0227801 50.3271C-0.103776 49.863 0.296985 49.2724 1.22506 48.5553C1.85784 48.0069 2.72264 47.6272 3.81946 47.4163C4.91628 47.1632 6.37167 46.8046 8.18564 46.3406C8.27001 44.3157 8.35438 42.0377 8.43875 39.5065C8.56531 36.9754 8.71295 34.3599 8.8817 31.6601C9.05044 28.918 9.21918 26.176 9.38792 23.4339C9.59885 20.6497 9.80977 18.0131 10.0207 15.5242C10.2316 13.0353 10.4636 10.7573 10.7168 8.69017C10.9699 6.62309 11.223 4.91459 11.4761 3.56466C11.5605 2.97406 11.6659 2.55221 11.7925 2.2991C11.9612 2.04599 12.1511 1.85615 12.362 1.7296C12.6151 1.68741 12.8471 1.77178 13.058 1.98271C13.269 2.19364 13.5432 2.19364 13.8807 1.98271C14.1338 1.85615 14.3447 1.75069 14.5134 1.66632C14.6822 1.53976 14.8087 1.47649 14.8931 1.47649C15.0197 1.4343 15.1251 1.47649 15.2095 1.60304C15.2939 1.7296 15.4204 1.96162 15.5892 2.2991C15.6313 2.34128 15.6735 2.34128 15.7157 2.2991C15.8001 2.25691 15.8845 2.19364 15.9688 2.10927L16.2219 1.85615C16.5172 1.7296 16.8969 1.64523 17.3609 1.60304C17.825 1.51867 18.0992 1.64523 18.1836 1.98271C18.2257 2.27801 18.289 2.40456 18.3734 2.36238C18.4578 2.27801 18.5632 2.15145 18.6898 1.98271C18.8585 1.81397 19.0484 1.64523 19.2593 1.47649C19.4702 1.30774 19.7233 1.26556 20.0186 1.34993C20.6092 1.56086 21.0522 1.91943 21.3475 2.42566C21.6428 2.88969 21.6217 3.56466 21.2842 4.45055Z" fill="white"/>
<path d="M149.599 119.958C149.81 120.253 149.937 120.464 149.979 120.591C150.021 120.717 150 120.823 149.916 120.907C149.873 120.949 149.789 120.992 149.663 121.034C149.536 121.076 149.431 121.139 149.346 121.224C149.135 121.35 149.072 121.477 149.156 121.603C149.283 121.73 149.22 121.962 148.966 122.299C148.798 122.426 148.777 122.574 148.903 122.742C149.03 122.869 149.051 122.974 148.966 123.059C148.334 124.029 147.849 124.641 147.511 124.894C147.174 124.894 146.878 124.936 146.625 125.02C146.499 125.063 146.414 125.105 146.372 125.147C146.246 125.273 146.119 125.442 145.992 125.653C145.866 125.822 145.76 125.991 145.676 126.159C145.592 126.286 145.486 126.391 145.36 126.476C145.275 126.518 145.17 126.455 145.043 126.286C144.917 126.075 144.748 125.97 144.537 125.97C144.368 125.97 144.242 126.033 144.157 126.159C144.073 126.244 143.968 126.349 143.841 126.476C143.714 126.56 143.63 126.666 143.588 126.792C143.588 126.877 143.651 126.982 143.778 127.109C143.904 127.193 144.2 127.298 144.664 127.425C145.718 127.72 145.908 128.016 145.233 128.311C144.6 128.564 143.377 128.627 141.563 128.501C139.833 128.374 138.188 128.269 136.627 128.184C135.066 128.058 133.506 127.973 131.945 127.931C130.426 127.847 128.865 127.784 127.262 127.741C125.659 127.699 123.951 127.699 122.137 127.741C119.732 127.784 117.18 127.889 114.48 128.058C111.822 128.226 109.165 128.416 106.507 128.627C103.891 128.838 101.36 129.049 98.9136 129.26C96.509 129.513 94.3365 129.745 92.396 129.956C90.4554 130.167 88.8102 130.357 87.4603 130.526C86.1525 130.736 85.3088 130.884 84.9292 130.969C84.5495 131.095 84.2753 131.137 84.1065 131.095C83.98 131.095 83.8745 130.99 83.7902 130.779C83.748 130.568 83.7058 130.251 83.6636 129.83C83.6214 129.408 83.5159 128.838 83.3472 128.121C83.2207 127.699 83.0308 127.277 82.7777 126.855C82.5668 126.391 82.4191 126.033 82.3348 125.78C82.2082 125.105 82.166 124.641 82.2082 124.388C82.2504 124.092 82.5035 123.902 82.9675 123.818L90.7507 121.73C90.2867 118.819 89.9492 115.423 89.7383 111.542C89.5695 107.619 89.4852 103.379 89.4852 98.8233C89.4852 94.9001 89.5695 90.8925 89.7383 86.8005C89.907 82.6663 90.1601 78.5111 90.4976 74.3347C91.3413 63.7884 92.0374 55.7099 92.5858 50.0993C93.1764 44.4464 93.7248 41.156 94.231 40.2279C94.3576 40.017 94.463 39.8271 94.5474 39.6584C94.6318 39.4475 94.7583 39.342 94.9271 39.342C95.1802 39.2155 95.37 39.2366 95.4966 39.4053C95.6231 39.574 95.8552 39.5951 96.1926 39.4686C96.277 39.4686 96.3403 39.4264 96.3825 39.342C96.4668 39.2155 96.5723 39.0889 96.6989 38.9624L96.8254 38.8991C96.9098 38.8147 97.0785 38.7092 97.3316 38.5827C97.9644 38.7936 98.4285 38.9834 98.7238 39.1522C98.8925 39.2366 98.998 39.2998 99.0401 39.342C99.2933 39.4686 99.5464 39.7006 99.7995 40.0381C100.053 40.3334 100.285 40.3545 100.496 40.1014L100.622 39.9748C100.706 39.8904 100.833 39.8482 101.002 39.8482C101.128 39.9326 101.255 40.017 101.381 40.1014C101.508 40.1857 101.613 40.2701 101.698 40.3545C101.824 40.481 101.93 40.5654 102.014 40.6076C102.225 40.7341 102.415 40.9029 102.584 41.1138C102.752 41.3247 102.921 41.7255 103.09 42.3161C103.259 43.0754 103.28 44.6363 103.153 46.9987C103.069 49.361 102.9 52.2718 102.647 55.731C102.436 59.1902 102.204 63.0713 101.951 67.3742C101.698 71.6771 101.55 76.1487 101.508 80.7891C101.466 82.9405 101.403 85.2607 101.318 87.7497C101.234 90.1964 101.149 92.7275 101.065 95.343C100.981 97.9163 100.896 100.469 100.812 103C100.77 105.531 100.749 107.935 100.749 110.213C100.749 112.027 100.749 113.736 100.749 115.339C100.791 116.9 100.917 118.25 101.128 119.389C105.727 118.418 110.873 117.554 116.568 116.794C122.305 116.035 128.422 115.655 134.919 115.655C137.281 115.655 139.243 115.782 140.804 116.035C142.407 116.246 143.735 116.562 144.79 116.984C145.043 117.068 145.402 117.237 145.866 117.49C146.33 117.701 146.815 117.954 147.321 118.25C147.827 118.545 148.292 118.84 148.713 119.136C149.135 119.431 149.431 119.705 149.599 119.958Z" fill="white"/>
</svg>
